<?xml version="1.0" encoding="UTF-8" standalone="no"?><!DOCTYPE svg PUBLIC "-//W3C//DTD SVG 1.1//EN" "http://www.w3.org/Graphics/SVG/1.1/DTD/svg11.dtd"><!-- Generated by graphviz version 2.40.1 (20161225.0304)
 --><!-- Title: ER Pages: 1 --><svg xmlns="http://www.w3.org/2000/svg" xmlns:xlink="http://www.w3.org/1999/xlink" width="701pt" height="452pt" viewBox="0.00 0.00 701.16 451.60">
<g id="graph0" class="graph" transform="scale(1 1) rotate(0) translate(4 447.6)">
<title>ER</title>
<polygon fill="#ffffff" stroke="transparent" points="-4,4 -4,-447.6 697.1558,-447.6 697.1558,4 -4,4"/>
<!-- comment -->
<g id="node1" class="node">
<title>comment</title>
<polygon fill="#add8e6" stroke="transparent" points="57.1558,-136 57.1558,-158 164.1558,-158 164.1558,-136 57.1558,-136"/>
<polygon fill="none" stroke="#000000" points="57.1558,-136 57.1558,-158 164.1558,-158 164.1558,-136 57.1558,-136"/>
<text text-anchor="start" x="89.4633" y="-142.4" font-family="Times,serif" font-size="14.00" fill="#000000">评论</text>
<polygon fill="none" stroke="#000000" points="57.1558,-114 57.1558,-136 104.1558,-136 104.1558,-114 57.1558,-114"/>
<text text-anchor="start" x="72.1032" y="-120.4" font-family="Times,serif" font-size="14.00" fill="#000000">cid</text>
<polygon fill="none" stroke="#000000" points="104.1558,-114 104.1558,-136 164.1558,-136 164.1558,-114 104.1558,-114"/>
<text text-anchor="start" x="107.1253" y="-120.4" font-family="Times,serif" font-size="14.00" fill="#000000">bigint PK</text>
<polygon fill="none" stroke="#000000" points="57.1558,-92 57.1558,-114 104.1558,-114 104.1558,-92 57.1558,-92"/>
<text text-anchor="start" x="65.4959" y="-98.4" font-family="Times,serif" font-size="14.00" fill="#000000">name</text>
<polygon fill="none" stroke="#000000" points="104.1558,-92 104.1558,-114 164.1558,-114 164.1558,-92 104.1558,-92"/>
<text text-anchor="start" x="123.6579" y="-98.4" font-family="Times,serif" font-size="14.00" fill="#000000">text</text>
<polygon fill="none" stroke="#000000" points="57.1558,-70 57.1558,-92 104.1558,-92 104.1558,-70 57.1558,-70"/>
<text text-anchor="start" x="72.4882" y="-76.4" font-family="Times,serif" font-size="14.00" fill="#000000">sid</text>
<polygon fill="none" stroke="#000000" points="104.1558,-70 104.1558,-92 164.1558,-92 164.1558,-70 104.1558,-70"/>
<text text-anchor="start" x="126.7652" y="-76.4" font-family="Times,serif" font-size="14.00" fill="#000000">int</text>
<polygon fill="none" stroke="#000000" points="57.1558,-48 57.1558,-70 104.1558,-70 104.1558,-48 57.1558,-48"/>
<text text-anchor="start" x="60.0506" y="-54.4" font-family="Times,serif" font-size="14.00" fill="#000000">content</text>
<polygon fill="none" stroke="#000000" points="104.1558,-48 104.1558,-70 164.1558,-70 164.1558,-48 104.1558,-48"/>
<text text-anchor="start" x="123.6579" y="-54.4" font-family="Times,serif" font-size="14.00" fill="#000000">text</text>
<polygon fill="none" stroke="#000000" points="57.1558,-26 57.1558,-48 104.1558,-48 104.1558,-26 57.1558,-26"/>
<text text-anchor="start" x="67.4356" y="-32.4" font-family="Times,serif" font-size="14.00" fill="#000000">likes</text>
<polygon fill="none" stroke="#000000" points="104.1558,-26 104.1558,-48 164.1558,-48 164.1558,-26 104.1558,-26"/>
<text text-anchor="start" x="126.7652" y="-32.4" font-family="Times,serif" font-size="14.00" fill="#000000">int</text>
<polygon fill="none" stroke="#000000" points="57.1558,-4 57.1558,-26 104.1558,-26 104.1558,-4 57.1558,-4"/>
<text text-anchor="start" x="68.2126" y="-10.4" font-family="Times,serif" font-size="14.00" fill="#000000">time</text>
<polygon fill="none" stroke="#000000" points="104.1558,-4 104.1558,-26 164.1558,-26 164.1558,-4 104.1558,-4"/>
<text text-anchor="start" x="110.0527" y="-10.4" font-family="Times,serif" font-size="14.00" fill="#000000">datetime</text>
</g>
<!-- price -->
<g id="node2" class="node">
<title>price</title>
<polygon fill="#add8e6" stroke="transparent" points="415.1558,-103 415.1558,-125 486.1558,-125 486.1558,-103 415.1558,-103"/>
<polygon fill="none" stroke="#000000" points="415.1558,-103 415.1558,-125 486.1558,-125 486.1558,-103 415.1558,-103"/>
<text text-anchor="start" x="432.4565" y="-109.4" font-family="Times,serif" font-size="14.00" fill="#000000">价格</text>
<polygon fill="none" stroke="#000000" points="415.1558,-81 415.1558,-103 455.1558,-103 455.1558,-81 415.1558,-81"/>
<text text-anchor="start" x="426.9882" y="-87.4" font-family="Times,serif" font-size="14.00" fill="#000000">sid</text>
<polygon fill="none" stroke="#000000" points="455.1558,-81 455.1558,-103 486.1558,-103 486.1558,-81 455.1558,-81"/>
<text text-anchor="start" x="463.2652" y="-87.4" font-family="Times,serif" font-size="14.00" fill="#000000">int</text>
<polygon fill="none" stroke="#000000" points="415.1558,-59 415.1558,-81 455.1558,-81 455.1558,-59 415.1558,-59"/>
<text text-anchor="start" x="418.0506" y="-65.4" font-family="Times,serif" font-size="14.00" fill="#000000">aimed</text>
<polygon fill="none" stroke="#000000" points="455.1558,-59 455.1558,-81 486.1558,-81 486.1558,-59 455.1558,-59"/>
<text text-anchor="start" x="460.1579" y="-65.4" font-family="Times,serif" font-size="14.00" fill="#000000">text</text>
<polygon fill="none" stroke="#000000" points="415.1558,-37 415.1558,-59 455.1558,-59 455.1558,-37 415.1558,-37"/>
<text text-anchor="start" x="421.1656" y="-43.4" font-family="Times,serif" font-size="14.00" fill="#000000">price</text>
<polygon fill="none" stroke="#000000" points="455.1558,-37 455.1558,-59 486.1558,-59 486.1558,-37 455.1558,-37"/>
<text text-anchor="start" x="457.8276" y="-43.4" font-family="Times,serif" font-size="14.00" fill="#000000">float</text>
</g>
<!-- rating -->
<g id="node3" class="node">
<title>rating</title>
<polygon fill="#add8e6" stroke="transparent" points="261.1558,-103 261.1558,-125 350.1558,-125 350.1558,-103 261.1558,-103"/>
<polygon fill="none" stroke="#000000" points="261.1558,-103 261.1558,-125 350.1558,-125 350.1558,-103 261.1558,-103"/>
<text text-anchor="start" x="290.4882" y="-109.4" font-family="Times,serif" font-size="14.00" fill="#000000">评分</text>
<polygon fill="none" stroke="#000000" points="261.1558,-81 261.1558,-103 299.1558,-103 299.1558,-81 261.1558,-81"/>
<text text-anchor="start" x="264.9959" y="-87.4" font-family="Times,serif" font-size="14.00" fill="#000000">name</text>
<polygon fill="none" stroke="#000000" points="299.1558,-81 299.1558,-103 350.1558,-103 350.1558,-81 299.1558,-81"/>
<text text-anchor="start" x="314.1579" y="-87.4" font-family="Times,serif" font-size="14.00" fill="#000000">text</text>
<polygon fill="none" stroke="#000000" points="261.1558,-59 261.1558,-81 299.1558,-81 299.1558,-59 261.1558,-59"/>
<text text-anchor="start" x="271.9882" y="-65.4" font-family="Times,serif" font-size="14.00" fill="#000000">sid</text>
<polygon fill="none" stroke="#000000" points="299.1558,-59 299.1558,-81 350.1558,-81 350.1558,-59 299.1558,-59"/>
<text text-anchor="start" x="317.2652" y="-65.4" font-family="Times,serif" font-size="14.00" fill="#000000">int</text>
<polygon fill="none" stroke="#000000" points="261.1558,-37 261.1558,-59 299.1558,-59 299.1558,-37 261.1558,-37"/>
<text text-anchor="start" x="263.8276" y="-43.4" font-family="Times,serif" font-size="14.00" fill="#000000">rating</text>
<polygon fill="none" stroke="#000000" points="299.1558,-37 299.1558,-59 350.1558,-59 350.1558,-37 299.1558,-37"/>
<text text-anchor="start" x="302.0997" y="-43.4" font-family="Times,serif" font-size="14.00" fill="#000000">smallint</text>
</g>
<!-- sites -->
<g id="node4" class="node">
<title>sites</title>
<polygon fill="#add8e6" stroke="transparent" points="342.1558,-417.6 342.1558,-439.6 452.1558,-439.6 452.1558,-417.6 342.1558,-417.6"/>
<polygon fill="none" stroke="#000000" points="342.1558,-417.6 342.1558,-439.6 452.1558,-439.6 452.1558,-417.6 342.1558,-417.6"/>
<text text-anchor="start" x="383.1572" y="-424" font-family="Times,serif" font-size="14.00" fill="#000000">景点</text>
<polygon fill="none" stroke="#000000" points="342.1558,-395.6 342.1558,-417.6 410.1558,-417.6 410.1558,-395.6 342.1558,-395.6"/>
<text text-anchor="start" x="367.9882" y="-402" font-family="Times,serif" font-size="14.00" fill="#000000">sid</text>
<polygon fill="none" stroke="#000000" points="410.1558,-395.6 410.1558,-417.6 452.1558,-417.6 452.1558,-395.6 410.1558,-395.6"/>
<text text-anchor="start" x="413.0706" y="-402" font-family="Times,serif" font-size="14.00" fill="#000000">int PK</text>
<polygon fill="none" stroke="#000000" points="342.1558,-373.6 342.1558,-395.6 410.1558,-395.6 410.1558,-373.6 342.1558,-373.6"/>
<text text-anchor="start" x="358.2736" y="-380" font-family="Times,serif" font-size="14.00" fill="#000000">sname</text>
<polygon fill="none" stroke="#000000" points="410.1558,-373.6 410.1558,-395.6 452.1558,-395.6 452.1558,-373.6 410.1558,-373.6"/>
<text text-anchor="start" x="420.6579" y="-380" font-family="Times,serif" font-size="14.00" fill="#000000">text</text>
<polygon fill="none" stroke="#000000" points="342.1558,-351.6 342.1558,-373.6 410.1558,-373.6 410.1558,-351.6 342.1558,-351.6"/>
<text text-anchor="start" x="345.0527" y="-358" font-family="Times,serif" font-size="14.00" fill="#000000">description</text>
<polygon fill="none" stroke="#000000" points="410.1558,-351.6 410.1558,-373.6 452.1558,-373.6 452.1558,-351.6 410.1558,-351.6"/>
<text text-anchor="start" x="420.6579" y="-358" font-family="Times,serif" font-size="14.00" fill="#000000">text</text>
<polygon fill="none" stroke="#000000" points="342.1558,-329.6 342.1558,-351.6 410.1558,-351.6 410.1558,-329.6 342.1558,-329.6"/>
<text text-anchor="start" x="367.6032" y="-336" font-family="Times,serif" font-size="14.00" fill="#000000">pic</text>
<polygon fill="none" stroke="#000000" points="410.1558,-329.6 410.1558,-351.6 452.1558,-351.6 452.1558,-329.6 410.1558,-329.6"/>
<text text-anchor="start" x="420.6579" y="-336" font-family="Times,serif" font-size="14.00" fill="#000000">text</text>
<polygon fill="none" stroke="#000000" points="342.1558,-307.6 342.1558,-329.6 410.1558,-329.6 410.1558,-307.6 342.1558,-307.6"/>
<text text-anchor="start" x="354.775" y="-314" font-family="Times,serif" font-size="14.00" fill="#000000">website</text>
<polygon fill="none" stroke="#000000" points="410.1558,-307.6 410.1558,-329.6 452.1558,-329.6 452.1558,-307.6 410.1558,-307.6"/>
<text text-anchor="start" x="420.6579" y="-314" font-family="Times,serif" font-size="14.00" fill="#000000">text</text>
</g>
<!-- has_comment -->
<g id="node8" class="node">
<title>has_comment</title>
<polygon fill="#d3d3d3" stroke="#000000" points="244.1558,-250.8 204.6404,-232.8 244.1558,-214.8 283.6712,-232.8 244.1558,-250.8"/>
<text text-anchor="middle" x="244.1558" y="-228.6" font-family="Times,serif" font-size="14.00" fill="#000000">拥有</text>
</g>
<!-- sites&#45;&gt;has_comment -->
<g id="edge1" class="edge">
<title>sites-&gt;has_comment</title>
<path fill="none" stroke="#000000" d="M334.0415,-315.5184C309.343,-292.7892 282.7231,-268.292 264.916,-251.9048"/>
<polygon fill="#000000" stroke="#000000" points="267.1215,-249.178 257.3931,-244.9818 262.3814,-254.3289 267.1215,-249.178"/>
<text text-anchor="middle" x="301.6558" y="-273" font-family="Times,serif" font-size="14.00" fill="#000000">1</text>
<text text-anchor="middle" x="330.5415" y="-319.7184" font-family="Times,serif" font-size="14.00" fill="#000000">n</text>
</g>
<!-- has_price -->
<g id="node9" class="node">
<title>has_price</title>
<polygon fill="#d3d3d3" stroke="#000000" points="450.1558,-250.8 410.6404,-232.8 450.1558,-214.8 489.6712,-232.8 450.1558,-250.8"/>
<text text-anchor="middle" x="450.1558" y="-228.6" font-family="Times,serif" font-size="14.00" fill="#000000">包含</text>
</g>
<!-- sites&#45;&gt;has_price -->
<g id="edge3" class="edge">
<title>sites-&gt;has_price</title>
<path fill="none" stroke="#000000" d="M423.6558,-303.2C429.7818,-286.9256 435.9078,-270.6512 440.7244,-257.8556"/>
<polygon fill="#000000" stroke="#000000" points="444.034,-258.998 444.2814,-248.406 437.4828,-256.5319 444.034,-258.998"/>
<text text-anchor="middle" x="439.6558" y="-273" font-family="Times,serif" font-size="14.00" fill="#000000">1</text>
<text text-anchor="middle" x="420.1558" y="-290.6" font-family="Times,serif" font-size="14.00" fill="#000000">n</text>
</g>
<!-- has_rating -->
<g id="node10" class="node">
<title>has_rating</title>
<polygon fill="#d3d3d3" stroke="#000000" points="347.1558,-250.8 301.755,-232.8 347.1558,-214.8 392.5565,-232.8 347.1558,-250.8"/>
<text text-anchor="middle" x="347.1558" y="-228.6" font-family="Times,serif" font-size="14.00" fill="#000000">评分</text>
</g>
<!-- sites&#45;&gt;has_rating -->
<g id="edge5" class="edge">
<title>sites-&gt;has_rating</title>
<path fill="none" stroke="#000000" d="M372.1558,-303.2C366.415,-287.0341 360.6743,-270.8682 356.1444,-258.1119"/>
<polygon fill="#000000" stroke="#000000" points="359.4389,-256.9301 352.7942,-248.6779 352.8425,-259.2726 359.4389,-256.9301"/>
<text text-anchor="middle" x="368.6558" y="-273" font-family="Times,serif" font-size="14.00" fill="#000000">1</text>
<text text-anchor="middle" x="368.6558" y="-290.6" font-family="Times,serif" font-size="14.00" fill="#000000">n</text>
</g>
<!-- has_tag -->
<g id="node11" class="node">
<title>has_tag</title>
<polygon fill="#d3d3d3" stroke="#000000" points="545.1558,-250.8 507.7402,-232.8 545.1558,-214.8 582.5714,-232.8 545.1558,-250.8"/>
<text text-anchor="middle" x="545.1558" y="-228.6" font-family="Times,serif" font-size="14.00" fill="#000000">具有</text>
</g>
<!-- sites&#45;&gt;has_tag -->
<g id="edge7" class="edge">
<title>sites-&gt;has_tag</title>
<path fill="none" stroke="#000000" d="M460.3504,-313.4797C483.5766,-291.3835 508.2541,-267.9065 524.9638,-252.0097"/>
<polygon fill="#000000" stroke="#000000" points="527.6527,-254.2824 532.4854,-244.854 522.8279,-249.2108 527.6527,-254.2824"/>
<text text-anchor="middle" x="509.6558" y="-273" font-family="Times,serif" font-size="14.00" fill="#000000">1</text>
<text text-anchor="middle" x="463.8504" y="-317.6797" font-family="Times,serif" font-size="14.00" fill="#000000">n</text>
</g>
<!-- sites_tags -->
<g id="node5" class="node">
<title>sites_tags</title>
<polygon fill="#add8e6" stroke="transparent" points="568.1558,-92 568.1558,-114 624.1558,-114 624.1558,-92 568.1558,-92"/>
<polygon fill="none" stroke="#000000" points="568.1558,-92 568.1558,-114 624.1558,-114 624.1558,-92 568.1558,-92"/>
<text text-anchor="start" x="571.0769" y="-98.4" font-family="Times,serif" font-size="14.00" fill="#000000">景点标签</text>
<polygon fill="none" stroke="#000000" points="568.1558,-70 568.1558,-92 602.1558,-92 602.1558,-70 568.1558,-70"/>
<text text-anchor="start" x="576.9882" y="-76.4" font-family="Times,serif" font-size="14.00" fill="#000000">sid</text>
<polygon fill="none" stroke="#000000" points="602.1558,-70 602.1558,-92 624.1558,-92 624.1558,-70 602.1558,-70"/>
<text text-anchor="start" x="605.7652" y="-76.4" font-family="Times,serif" font-size="14.00" fill="#000000">int</text>
<polygon fill="none" stroke="#000000" points="568.1558,-48 568.1558,-70 602.1558,-70 602.1558,-48 568.1558,-48"/>
<text text-anchor="start" x="571.1579" y="-54.4" font-family="Times,serif" font-size="14.00" fill="#000000">tagid</text>
<polygon fill="none" stroke="#000000" points="602.1558,-48 602.1558,-70 624.1558,-70 624.1558,-48 602.1558,-48"/>
<text text-anchor="start" x="605.7652" y="-54.4" font-family="Times,serif" font-size="14.00" fill="#000000">int</text>
</g>
<!-- tags -->
<g id="node6" class="node">
<title>tags</title>
<polygon fill="#add8e6" stroke="transparent" points="607.1558,-384.6 607.1558,-406.6 685.1558,-406.6 685.1558,-384.6 607.1558,-384.6"/>
<polygon fill="none" stroke="#000000" points="607.1558,-384.6 607.1558,-406.6 685.1558,-406.6 685.1558,-384.6 607.1558,-384.6"/>
<text text-anchor="start" x="635.0755" y="-391" font-family="Times,serif" font-size="14.00" fill="#000000">标签</text>
<polygon fill="none" stroke="#000000" points="607.1558,-362.6 607.1558,-384.6 643.1558,-384.6 643.1558,-362.6 607.1558,-362.6"/>
<text text-anchor="start" x="611.1579" y="-369" font-family="Times,serif" font-size="14.00" fill="#000000">tagid</text>
<polygon fill="none" stroke="#000000" points="643.1558,-362.6 643.1558,-384.6 685.1558,-384.6 685.1558,-362.6 643.1558,-362.6"/>
<text text-anchor="start" x="646.0706" y="-369" font-family="Times,serif" font-size="14.00" fill="#000000">int PK</text>
<polygon fill="none" stroke="#000000" points="607.1558,-340.6 607.1558,-362.6 643.1558,-362.6 643.1558,-340.6 607.1558,-340.6"/>
<text text-anchor="start" x="609.9959" y="-347" font-family="Times,serif" font-size="14.00" fill="#000000">name</text>
<polygon fill="none" stroke="#000000" points="643.1558,-340.6 643.1558,-362.6 685.1558,-362.6 685.1558,-340.6 643.1558,-340.6"/>
<text text-anchor="start" x="653.6579" y="-347" font-family="Times,serif" font-size="14.00" fill="#000000">text</text>
</g>
<!-- tagged_with -->
<g id="node12" class="node">
<title>tagged_with</title>
<polygon fill="#d3d3d3" stroke="#000000" points="646.1558,-250.8 600.755,-232.8 646.1558,-214.8 691.5565,-232.8 646.1558,-250.8"/>
<text text-anchor="middle" x="646.1558" y="-228.6" font-family="Times,serif" font-size="14.00" fill="#000000">标记</text>
</g>
<!-- tags&#45;&gt;tagged_with -->
<g id="edge9" class="edge">
<title>tags-&gt;tagged_with</title>
<path fill="none" stroke="#000000" d="M646.1558,-336.2378C646.1558,-312.6809 646.1558,-282.7413 646.1558,-261.1412"/>
<polygon fill="#000000" stroke="#000000" points="649.6559,-260.9784 646.1558,-250.9784 642.6559,-260.9785 649.6559,-260.9784"/>
<text text-anchor="middle" x="649.6558" y="-273" font-family="Times,serif" font-size="14.00" fill="#000000">1</text>
<text text-anchor="middle" x="642.6558" y="-323.6378" font-family="Times,serif" font-size="14.00" fill="#000000">n</text>
</g>
<!-- users -->
<g id="node7" class="node">
<title>users</title>
<polygon fill="#add8e6" stroke="transparent" points="18.1558,-417.6 18.1558,-439.6 151.1558,-439.6 151.1558,-417.6 18.1558,-417.6"/>
<polygon fill="none" stroke="#000000" points="18.1558,-417.6 18.1558,-439.6 151.1558,-439.6 151.1558,-417.6 18.1558,-417.6"/>
<text text-anchor="start" x="71.7065" y="-424" font-family="Times,serif" font-size="14.00" fill="#000000">用户</text>
<polygon fill="none" stroke="#000000" points="18.1558,-395.6 18.1558,-417.6 82.1558,-417.6 82.1558,-395.6 18.1558,-395.6"/>
<text text-anchor="start" x="34.9959" y="-402" font-family="Times,serif" font-size="14.00" fill="#000000">name</text>
<polygon fill="none" stroke="#000000" points="82.1558,-395.6 82.1558,-417.6 151.1558,-417.6 151.1558,-395.6 82.1558,-395.6"/>
<text text-anchor="start" x="84.9787" y="-402" font-family="Times,serif" font-size="14.00" fill="#000000">varchar PK</text>
<polygon fill="none" stroke="#000000" points="18.1558,-373.6 18.1558,-395.6 82.1558,-395.6 82.1558,-373.6 18.1558,-373.6"/>
<text text-anchor="start" x="23.7203" y="-380" font-family="Times,serif" font-size="14.00" fill="#000000">password</text>
<polygon fill="none" stroke="#000000" points="82.1558,-373.6 82.1558,-395.6 151.1558,-395.6 151.1558,-373.6 82.1558,-373.6"/>
<text text-anchor="start" x="104.6109" y="-380" font-family="Times,serif" font-size="14.00" fill="#000000">char</text>
<polygon fill="none" stroke="#000000" points="18.1558,-351.6 18.1558,-373.6 82.1558,-373.6 82.1558,-351.6 18.1558,-351.6"/>
<text text-anchor="start" x="33.0583" y="-358" font-family="Times,serif" font-size="14.00" fill="#000000">avatar</text>
<polygon fill="none" stroke="#000000" points="82.1558,-351.6 82.1558,-373.6 151.1558,-373.6 151.1558,-351.6 82.1558,-351.6"/>
<text text-anchor="start" x="106.1579" y="-358" font-family="Times,serif" font-size="14.00" fill="#000000">text</text>
<polygon fill="none" stroke="#000000" points="18.1558,-329.6 18.1558,-351.6 82.1558,-351.6 82.1558,-329.6 18.1558,-329.6"/>
<text text-anchor="start" x="34.6053" y="-336" font-family="Times,serif" font-size="14.00" fill="#000000">email</text>
<polygon fill="none" stroke="#000000" points="82.1558,-329.6 82.1558,-351.6 151.1558,-351.6 151.1558,-329.6 82.1558,-329.6"/>
<text text-anchor="start" x="106.1579" y="-336" font-family="Times,serif" font-size="14.00" fill="#000000">text</text>
<polygon fill="none" stroke="#000000" points="18.1558,-307.6 18.1558,-329.6 82.1558,-329.6 82.1558,-307.6 18.1558,-307.6"/>
<text text-anchor="start" x="21.0078" y="-314" font-family="Times,serif" font-size="14.00" fill="#000000">createtime</text>
<polygon fill="none" stroke="#000000" points="82.1558,-307.6 82.1558,-329.6 151.1558,-329.6 151.1558,-307.6 82.1558,-307.6"/>
<text text-anchor="start" x="92.5527" y="-314" font-family="Times,serif" font-size="14.00" fill="#000000">datetime</text>
</g>
<!-- made_comment -->
<g id="node13" class="node">
<title>made_comment</title>
<polygon fill="#d3d3d3" stroke="#000000" points="42.1558,-250.8 -.1564,-232.8 42.1558,-214.8 84.4679,-232.8 42.1558,-250.8"/>
<text text-anchor="middle" x="42.1558" y="-228.6" font-family="Times,serif" font-size="14.00" fill="#000000">创建</text>
</g>
<!-- users&#45;&gt;made_comment -->
<g id="edge11" class="edge">
<title>users-&gt;made_comment</title>
<path fill="none" stroke="#000000" d="M63.1558,-303.2C58.4134,-287.3016 53.6709,-271.4031 49.8959,-258.7479"/>
<polygon fill="#000000" stroke="#000000" points="53.1862,-257.5338 46.9737,-248.9516 46.4783,-259.5348 53.1862,-257.5338"/>
<text text-anchor="middle" x="60.6558" y="-273" font-family="Times,serif" font-size="14.00" fill="#000000">1</text>
<text text-anchor="middle" x="59.6558" y="-290.6" font-family="Times,serif" font-size="14.00" fill="#000000">n</text>
</g>
<!-- gave_rating -->
<g id="node14" class="node">
<title>gave_rating</title>
<polygon fill="#d3d3d3" stroke="#000000" points="144.1558,-250.8 101.8436,-232.8 144.1558,-214.8 186.4679,-232.8 144.1558,-250.8"/>
<text text-anchor="middle" x="144.1558" y="-228.6" font-family="Times,serif" font-size="14.00" fill="#000000">给出</text>
</g>
<!-- users&#45;&gt;gave_rating -->
<g id="edge13" class="edge">
<title>users-&gt;gave_rating</title>
<path fill="none" stroke="#000000" d="M114.1558,-303.2C121.1371,-286.8171 128.1185,-270.4342 133.5876,-257.6001"/>
<polygon fill="#000000" stroke="#000000" points="136.92,-258.7078 137.6205,-248.1361 130.4804,-255.9635 136.92,-258.7078"/>
<text text-anchor="middle" x="131.6558" y="-273" font-family="Times,serif" font-size="14.00" fill="#000000">1</text>
<text text-anchor="middle" x="110.6558" y="-290.6" font-family="Times,serif" font-size="14.00" fill="#000000">n</text>
</g>
<!-- has_comment&#45;&gt;comment -->
<g id="edge2" class="edge">
<title>has_comment-&gt;comment</title>
<path fill="none" stroke="#000000" d="M232.731,-219.8576C220.3381,-205.8185 199.4965,-182.2084 178.481,-158.4012"/>
<polygon fill="#000000" stroke="#000000" points="180.9039,-155.8573 171.6621,-150.6766 175.6561,-160.4898 180.9039,-155.8573"/>
<text text-anchor="middle" x="215.6558" y="-184.2" font-family="Times,serif" font-size="14.00" fill="#000000">n</text>
<text text-anchor="middle" x="175.1621" y="-154.8766" font-family="Times,serif" font-size="14.00" fill="#000000">1</text>
</g>
<!-- has_price&#45;&gt;price -->
<g id="edge4" class="edge">
<title>has_price-&gt;price</title>
<path fill="none" stroke="#000000" d="M450.1558,-214.7904C450.1558,-196.1968 450.1558,-166.1915 450.1558,-139.304"/>
<polygon fill="#000000" stroke="#000000" points="453.6559,-139.182 450.1558,-129.182 446.6559,-139.182 453.6559,-139.182"/>
<text text-anchor="middle" x="453.6558" y="-184.2" font-family="Times,serif" font-size="14.00" fill="#000000">n</text>
<text text-anchor="middle" x="446.6558" y="-133.382" font-family="Times,serif" font-size="14.00" fill="#000000">1</text>
</g>
<!-- has_rating&#45;&gt;rating -->
<g id="edge6" class="edge">
<title>has_rating-&gt;rating</title>
<path fill="none" stroke="#000000" d="M342.6611,-216.5547C337.531,-198.0134 328.8511,-166.6416 321.1328,-138.7455"/>
<polygon fill="#000000" stroke="#000000" points="324.4902,-137.7546 318.4503,-129.05 317.7437,-139.6213 324.4902,-137.7546"/>
<text text-anchor="middle" x="340.6558" y="-184.2" font-family="Times,serif" font-size="14.00" fill="#000000">n</text>
<text text-anchor="middle" x="314.9503" y="-133.25" font-family="Times,serif" font-size="14.00" fill="#000000">1</text>
</g>
<!-- has_tag&#45;&gt;sites_tags -->
<g id="edge8" class="edge">
<title>has_tag-&gt;sites_tags</title>
<path fill="none" stroke="#000000" d="M550.4216,-217.1265C557.4488,-196.2103 570.1977,-158.2635 580.4532,-127.7383"/>
<polygon fill="#000000" stroke="#000000" points="583.8178,-128.7133 583.6849,-118.1193 577.1823,-126.4839 583.8178,-128.7133"/>
<text text-anchor="middle" x="565.6558" y="-184.2" font-family="Times,serif" font-size="14.00" fill="#000000">n</text>
<text text-anchor="middle" x="580.1849" y="-122.3193" font-family="Times,serif" font-size="14.00" fill="#000000">1</text>
</g>
<!-- tagged_with&#45;&gt;sites_tags -->
<g id="edge10" class="edge">
<title>tagged_with-&gt;sites_tags</title>
<path fill="none" stroke="#000000" d="M640.8994,-216.8417C633.999,-195.892 621.5888,-158.2147 611.586,-127.8461"/>
<polygon fill="#000000" stroke="#000000" points="614.8858,-126.6765 608.4329,-118.2734 608.2372,-128.8664 614.8858,-126.6765"/>
<text text-anchor="middle" x="637.6558" y="-184.2" font-family="Times,serif" font-size="14.00" fill="#000000">n</text>
<text text-anchor="middle" x="604.9329" y="-122.4734" font-family="Times,serif" font-size="14.00" fill="#000000">1</text>
</g>
<!-- made_comment&#45;&gt;comment -->
<g id="edge12" class="edge">
<title>made_comment-&gt;comment</title>
<path fill="none" stroke="#000000" d="M49.0502,-217.4092C54.1682,-205.984 61.6115,-189.368 69.5547,-171.6359"/>
<polygon fill="#000000" stroke="#000000" points="72.8504,-172.8401 73.7444,-162.2831 66.462,-169.9784 72.8504,-172.8401"/>
<text text-anchor="middle" x="67.6558" y="-184.2" font-family="Times,serif" font-size="14.00" fill="#000000">n</text>
<text text-anchor="middle" x="70.2444" y="-166.4831" font-family="Times,serif" font-size="14.00" fill="#000000">1</text>
</g>
<!-- gave_rating&#45;&gt;rating -->
<g id="edge14" class="edge">
<title>gave_rating-&gt;rating</title>
<path fill="none" stroke="#000000" d="M154.9957,-219.3103C164.0145,-208.3506 177.3952,-192.6854 190.1558,-180 207.2392,-163.0172 226.7903,-145.5362 244.8667,-130.0794"/>
<polygon fill="#000000" stroke="#000000" points="247.1556,-132.7274 252.512,-123.5863 242.6242,-127.392 247.1556,-132.7274"/>
<text text-anchor="middle" x="193.6558" y="-184.2" font-family="Times,serif" font-size="14.00" fill="#000000">n</text>
<text text-anchor="middle" x="249.012" y="-127.7863" font-family="Times,serif" font-size="14.00" fill="#000000">1</text>
</g>
</g>
</svg>